<?xml version="1.0" encoding="UTF-8"?>
<svg version="1.1" xmlns="http://www.w3.org/2000/svg" width="286" height="300">
<path d="M0 0 C0.65613281 0.53238281 1.31226563 1.06476563 1.98828125 1.61328125 C2.61347656 2.11472656 3.23867187 2.61617187 3.8828125 3.1328125 C10.01345425 8.62234139 14.66344768 16.66441854 15.86328125 24.86328125 C15.90453125 25.77078125 15.94578125 26.67828125 15.98828125 27.61328125 C17.16390625 27.71640625 18.33953125 27.81953125 19.55078125 27.92578125 C23.85190949 28.46819707 27.13889155 29.61159861 30.98828125 31.61328125 C33.31364188 35.1013222 33.32286023 36.51468879 32.98828125 40.61328125 C32.42578125 42.80078125 32.42578125 42.80078125 30.98828125 44.61328125 C26.451809 46.92599259 21.89434351 48.23840871 16.98828125 49.61328125 C16.9742627 50.4496814 16.9742627 50.4496814 16.95996094 51.30297852 C16.44504797 75.87492808 11.05223721 96.27395389 -7.01171875 113.61328125 C-7.78773438 114.37382812 -8.56375 115.134375 -9.36328125 115.91796875 C-15.73160612 121.88124115 -24.8647594 129.61328125 -34.01171875 129.61328125 C-33.98029785 130.71784668 -33.98029785 130.71784668 -33.94824219 131.84472656 C-33.86504731 135.18410567 -33.81304718 138.52326674 -33.76171875 141.86328125 C-33.72820312 143.02214844 -33.6946875 144.18101562 -33.66015625 145.375 C-33.64082031 147.04755859 -33.64082031 147.04755859 -33.62109375 148.75390625 C-33.58967285 150.29353027 -33.58967285 150.29353027 -33.55761719 151.86425781 C-34.13371372 155.35180994 -35.2491612 156.47393107 -38.01171875 158.61328125 C-41.44921875 159.61328125 -41.44921875 159.61328125 -45.01171875 159.61328125 C-47.81361321 157.84686953 -49.52696786 156.58278303 -51.01171875 153.61328125 C-51.09544534 152.09179799 -51.11901902 150.56672347 -51.109375 149.04296875 C-51.10454102 147.69912109 -51.10454102 147.69912109 -51.09960938 146.328125 C-51.08704102 144.92240234 -51.08704102 144.92240234 -51.07421875 143.48828125 C-51.06970703 142.54339844 -51.06519531 141.59851563 -51.06054688 140.625 C-51.04874232 138.28769738 -51.03227634 135.95052064 -51.01171875 133.61328125 C-51.67171875 133.94328125 -52.33171875 134.27328125 -53.01171875 134.61328125 C-55.38574376 134.68444507 -57.76172552 134.6973721 -60.13671875 134.67578125 C-61.41804688 134.66675781 -62.699375 134.65773437 -64.01953125 134.6484375 C-65.50066406 134.63103516 -65.50066406 134.63103516 -67.01171875 134.61328125 C-66.9653125 135.92683594 -66.91890625 137.24039063 -66.87109375 138.59375 C-66.83356609 140.32940429 -66.797167 142.06508324 -66.76171875 143.80078125 C-66.72820312 144.66509766 -66.6946875 145.52941406 -66.66015625 146.41992188 C-66.59589543 150.61294011 -66.64228591 152.98524543 -68.80859375 156.66796875 C-71.82826852 159.33427732 -74.03181475 159.54221154 -78.01171875 159.61328125 C-81.40979901 158.51120117 -81.95903792 157.69230249 -84.01171875 154.61328125 C-84.01171875 148.01328125 -84.01171875 141.41328125 -84.01171875 134.61328125 C-98.20171875 134.61328125 -112.39171875 134.61328125 -127.01171875 134.61328125 C-127.67171875 136.26328125 -128.33171875 137.91328125 -129.01171875 139.61328125 C-130.28545409 141.40712519 -131.62245319 143.15734486 -133.01171875 144.86328125 C-134.06359375 146.17039063 -134.06359375 146.17039063 -135.13671875 147.50390625 C-137.63976185 150.31982973 -138.5330535 150.55909273 -142.32421875 150.98828125 C-146.01171875 150.61328125 -146.01171875 150.61328125 -148.94921875 148.55078125 C-151.62175694 144.74443899 -151.61748329 143.21894141 -151.01171875 138.61328125 C-149.30147833 135.30376585 -147.11851079 132.40072254 -144.88671875 129.42578125 C-143.59201467 127.64093919 -142.29775607 125.85577391 -141.00390625 124.0703125 C-140.33842773 123.16361816 -139.67294922 122.25692383 -138.98730469 121.32275391 C-135.93097125 117.13105983 -132.97403237 112.87165966 -130.01171875 108.61328125 C-128.8455882 106.94623943 -127.67891981 105.27957371 -126.51171875 103.61328125 C-125.93421875 102.78828125 -125.35671875 101.96328125 -124.76171875 101.11328125 C-123.01171875 98.61328125 -121.26171875 96.11328125 -119.51171875 93.61328125 C-118.93405762 92.78803955 -118.35639648 91.96279785 -117.76123047 91.11254883 C-116.59623511 89.44829297 -115.43119615 87.78406764 -114.26611328 86.11987305 C-111.32351464 81.91657202 -108.38170971 77.71271944 -105.44140625 73.5078125 C-99.49780633 65.00950735 -93.54212252 56.52021956 -87.5546875 48.05273438 C-84.25523511 43.38361541 -80.97234519 38.70318882 -77.69775391 34.01660156 C-75.91420007 31.46509531 -74.12734443 28.91592978 -72.33984375 26.3671875 C-70.2762165 23.42445504 -68.22385787 20.47459173 -66.18359375 17.515625 C-57.71321816 5.30167433 -49.38676221 -3.93869882 -34.38671875 -7.76171875 C-22.05880028 -9.88265096 -10.18400659 -7.50302497 0 0 Z M-46.19921875 19.30078125 C-47.48419321 21.06138021 -48.75485335 22.83250686 -50.01171875 24.61328125 C-51.06166016 25.94746094 -51.06166016 25.94746094 -52.1328125 27.30859375 C-52.79410156 28.17226562 -53.45539063 29.0359375 -54.13671875 29.92578125 C-54.73742187 30.70566406 -55.338125 31.48554687 -55.95703125 32.2890625 C-57.29591418 34.59718012 -57.29591418 34.59718012 -56.37109375 37.14453125 C-55.07913092 39.49085456 -53.70695408 41.63255475 -52.13671875 43.80078125 C-43.37479955 56.68721364 -41.31801839 71.6719821 -43.4765625 86.890625 C-45.72922681 97.03427908 -50.40054568 106.12559768 -56.91015625 114.1875 C-58.11361638 115.44487887 -58.11361638 115.44487887 -58.01171875 116.61328125 C-45.09923747 117.76618136 -32.83251797 112.73009851 -23.01171875 104.61328125 C-22.40328125 104.17628906 -21.79484375 103.73929687 -21.16796875 103.2890625 C-10.46247584 95.18695082 -3.91630705 81.70736624 -1.4284668 68.7956543 C-0.61251207 62.56485767 -0.63983559 56.30334887 -0.64111328 50.02734375 C-0.63672693 47.6177769 -0.60026709 45.21002732 -0.5625 42.80078125 C-0.48982378 33.10844995 -0.8035719 24.816081 -7.16015625 16.95703125 C-14.32445217 11.02449147 -19.54129114 9.02950882 -28.91796875 9.25 C-36.45223017 10.13470494 -41.44661514 13.50826053 -46.19921875 19.30078125 Z M-69.01171875 51.61328125 C-70.29881691 53.09219133 -70.29881691 53.09219133 -71.55859375 55.06640625 C-72.06640381 55.82042725 -72.57421387 56.57444824 -73.09741211 57.35131836 C-73.6466333 58.18026611 -74.19585449 59.00921387 -74.76171875 59.86328125 C-75.94427883 61.62048774 -77.12790674 63.376976 -78.3125 65.1328125 C-78.92432129 66.04240723 -79.53614258 66.95200195 -80.16650391 67.88916016 C-83.0475216 72.14245407 -85.9955178 76.3477745 -88.94921875 80.55078125 C-89.52164307 81.36643555 -90.09406738 82.18208984 -90.68383789 83.02246094 C-91.85470431 84.6907863 -93.02584897 86.35891641 -94.19726562 88.02685547 C-96.10217773 90.74222668 -98.00279228 93.46056385 -99.90234375 96.1796875 C-100.85572632 97.54395874 -100.85572632 97.54395874 -101.82836914 98.93579102 C-103.04673402 100.67946942 -104.26469111 102.42343287 -105.48217773 104.16772461 C-106.03204346 104.9541333 -106.58190918 105.74054199 -107.1484375 106.55078125 C-107.63014404 107.24042969 -108.11185059 107.93007812 -108.6081543 108.640625 C-109.59965665 110.0341437 -110.63160845 111.39929815 -111.69067383 112.7421875 C-113.20397299 114.50384385 -113.20397299 114.50384385 -113.01171875 116.61328125 C-97.64700038 117.1550343 -85.42298441 116.76795315 -73.01171875 106.61328125 C-63.94968896 98.13589854 -59.61255925 87.9671481 -59.01171875 75.61328125 C-59.36775299 66.57460561 -62.6164015 59.40874959 -67.01171875 51.61328125 C-67.67171875 51.61328125 -68.33171875 51.61328125 -69.01171875 51.61328125 Z " fill="#D1D1D1" transform="translate(197.01171875,75.38671875)"/>
<path d="M0 0 C3 2.0625 3 2.0625 5 5 C5.625 8.5 5.625 8.5 5 12 C2.40783917 15.69186542 0.95850936 16.82883761 -3.5 17.625 C-7 17 -7 17 -9.9375 15 C-12.79117716 10.84919686 -12.7099846 8.9698922 -12 4 C-9.21741025 -0.63764958 -5.03817252 -1.13733003 0 0 Z " fill="#CCCCCC" transform="translate(175,101)"/>
<path d="M0 0 C0.33 0 0.66 0 1 0 C1.48105833 7.09561034 1.48105833 7.09561034 -0.5625 10.9375 C-3.74054585 13.62661572 -5.87326713 13.92630834 -10 14 C-12.375 13.3125 -12.375 13.3125 -14 12 C-14.9375 10.0625 -14.9375 10.0625 -15 8 C-13.6875 6.25 -13.6875 6.25 -12 5 C-11.34 5 -10.68 5 -10 5 C-10 5.66 -10 6.32 -10 7 C-9.34 7.33 -8.68 7.66 -8 8 C-8 8.66 -8 9.32 -8 10 C-6.35 10 -4.7 10 -3 10 C-1.5783681 6.6828589 -0.60990891 3.55780196 0 0 Z " fill="#BEBEBE" transform="translate(129,221)"/>
<path d="M0 0 C6.51388543 2.89194051 10.34718932 8.76387653 13.3203125 15.06640625 C14.26917456 17.76575522 14.2825278 20.17472203 14 23 C12.93486398 20.8891825 11.89299287 18.77246904 10.88671875 16.6328125 C6.96638133 8.02170567 6.96638133 8.02170567 0 2 C0 1.34 0 0.68 0 0 Z " fill="#9A9A9A" transform="translate(197,77)"/>
<path d="M0 0 C1.875 0.3125 1.875 0.3125 4 1 C6.48038907 4.7205836 6.46337203 6.59796571 6 11 C4 13.4375 4 13.4375 2 15 C1.01 14.67 0.02 14.34 -1 14 C-0.34 13.649375 0.32 13.29875 1 12.9375 C3.35621688 11.05853523 3.35621688 11.05853523 3.4375 7.5625 C2.99490804 3.95853694 2.46704919 2.56984291 0 0 Z " fill="#A8A8A8" transform="translate(174,102)"/>
<path d="M0 0 C0.66 0.33 1.32 0.66 2 1 C2 1.66 2 2.32 2 3 C0.7934375 4.175625 0.7934375 4.175625 -0.4375 5.375 C-2.81810326 7.81366675 -3.63635918 8.7272326 -4 12 C-4.99 12 -5.98 12 -7 12 C-5.44298069 7.32894208 -2.91552627 3.91294315 0 0 Z " fill="#979797" transform="translate(58,197)"/>
<path d="M0 0 C0.99 0.99 1.98 1.98 3 3 C2.67 3.99 2.34 4.98 2 6 C-0.0625 6.6875 -0.0625 6.6875 -2 7 C-1.125 1.125 -1.125 1.125 0 0 Z " fill="#DBDBDB" transform="translate(196,150)"/>
<path d="M0 0 C1.32 0.66 2.64 1.32 4 2 C3.01 3.98 2.02 5.96 1 8 C-0.42944945 5.64561267 -1.08661261 4.51967567 -0.625 1.75 C-0.41875 1.1725 -0.2125 0.595 0 0 Z " fill="#DADADA" transform="translate(202,162)"/>
<path d="M0 0 C1.32 0.33 2.64 0.66 4 1 C3.37240135 3.92879371 2.41377341 6.36095629 1 9 C0.67 9 0.34 9 0 9 C0 6.03 0 3.06 0 0 Z " fill="#DADADA" transform="translate(226,109)"/>
<path d="M0 0 C0.66 0.33 1.32 0.66 2 1 C-0.97 4.96 -0.97 4.96 -4 9 C-4.33 8.34 -4.66 7.68 -5 7 C-3.35 4.69 -1.7 2.38 0 0 Z " fill="#8F8F8F" transform="translate(98,140)"/>
<path d="M0 0 C0.66 0.33 1.32 0.66 2 1 C-0.97 4.96 -0.97 4.96 -4 9 C-4.33 8.34 -4.66 7.68 -5 7 C-3.35 4.69 -1.7 2.38 0 0 Z " fill="#939393" transform="translate(105,130)"/>
<path d="M0 0 C0.99 0.33 1.98 0.66 3 1 C2.34 1 1.68 1 1 1 C1 1.66 1 2.32 1 3 C0.01 3.66 -0.98 4.32 -2 5 C-2.66 5.66 -3.32 6.32 -4 7 C-4.33 5.68 -4.66 4.36 -5 3 C-2.6875 1.4375 -2.6875 1.4375 0 0 Z " fill="#ADADAD" transform="translate(151,72)"/>
<path d="" fill="#FEFEFE" transform="translate(0,0)"/>
</svg>
